<svg xmlns:dc="http://purl.org/dc/elements/1.1/" xmlns:cc="http://creativecommons.org/ns#" xmlns:rdf="http://www.w3.org/1999/02/22-rdf-syntax-ns#" xmlns:svg="http://www.w3.org/2000/svg" xmlns="http://www.w3.org/2000/svg" id="svg352075" viewBox="0 0 1024 768" height="768px" width="1024px" version="1.1">
  <metadata id="metadata352081">
    <rdf:rdf>
      <cc:work rdf:about="">
        <dc:format>image/svg+xml</dc:format>
        <dc:type rdf:resource="http://purl.org/dc/dcmitype/StillImage"></dc:type>
      </cc:work>
    </rdf:rdf>
  </metadata>
  <defs id="defs352079"></defs>
  <g id="logo-group">
    <g id="logo-center" transform="translate(218.17031250000002 0)">
      <g id="slogan" style="font-style:normal;font-weight:700;font-size:32px;line-height:1;font-family:Brandmark1Bold;font-variant-ligatures:none;text-align:center;text-anchor:middle" transform="translate(0 0)"></g>
      <g id="title" style="font-style:normal;font-weight:700;font-size:72px;line-height:1;font-family:Brandmark1Bold;font-variant-ligatures:normal;text-align:center;text-anchor:middle" transform="translate(0 0)">
        <path id="path352084" style="font-style:normal;font-weight:700;font-size:72px;line-height:1;font-family:Brandmark1Bold;font-variant-ligatures:normal;text-align:center;text-anchor:middle" d="M 374.56662,-50.04 V 2.52 h 11.30401 v -56.16 z" stroke-width="0" stroke-linejoin="miter" stroke-miterlimit="2" fill="#ffffff" stroke="#ffffff" transform="translate(0 312.61600000000004) translate(50 9.769999999999996) scale(1.75) translate(-374.56662 53.64)"></path>
        <path id="path352086" style="font-style:normal;font-weight:700;font-size:72px;line-height:1;font-family:Brandmark1Bold;font-variant-ligatures:normal;text-align:center;text-anchor:middle" d="m 423.99012,-31.608 c -3.38399,-3.456 -7.99199,-5.328 -12.816,-5.328 -2.51999,0 -5.04,0.504 -7.272,1.512 v -2.592 h -10.8 v 17.64 c -0.072,0.504 -0.072,1.08 -0.072,1.584 h 0.072 V 2.52 h 10.8 V -19.8 c 0.504,-3.6 3.6,-6.336 7.272,-6.336 4.032,0 7.344,3.312 7.344,7.344 V 2.52 h 10.8 v -21.312 c 0,-4.824 -1.872,-9.36 -5.328,-12.816 z" stroke-width="0" stroke-linejoin="miter" stroke-miterlimit="2" fill="#ffffff" stroke="#ffffff" transform="translate(0 312.61600000000004) translate(82.311125 37.11200000000001) scale(1.75) translate(-393.03012 38.016)"></path>
        <path id="path352088" style="font-style:normal;font-weight:700;font-size:72px;line-height:1;font-family:Brandmark1Bold;font-variant-ligatures:normal;text-align:center;text-anchor:middle" d="m 465.4745,-31.608 c -3.384,-3.456 -7.992,-5.328 -12.816,-5.328 -2.52,0 -5.04,0.504 -7.272,1.512 v -2.592 h -10.8 v 17.64 c -0.072,0.504 -0.072,1.08 -0.072,1.584 h 0.072 V 2.52 h 10.8 V -19.8 c 0.504,-3.6 3.6,-6.336 7.272,-6.336 4.032,0 7.344,3.312 7.344,7.344 V 2.52 h 10.8 v -21.312 c 0,-4.824 -1.872,-9.36 -5.328,-12.816 z" stroke-width="0" stroke-linejoin="miter" stroke-miterlimit="2" fill="#ffffff" stroke="#ffffff" transform="translate(0 312.61600000000004) translate(154.90878999999995 37.11200000000001) scale(1.75) translate(-434.5145 38.016)"></path>
        <path id="path352090" style="font-style:normal;font-weight:700;font-size:72px;line-height:1;font-family:Brandmark1Bold;font-variant-ligatures:normal;text-align:center;text-anchor:middle" d="M 476.43088,-35.424 V 2.52 h 10.87199 v -41.544 z" stroke-width="0" stroke-linejoin="miter" stroke-miterlimit="2" fill="#ffffff" stroke="#ffffff" transform="translate(0 312.61600000000004) translate(228.26245499999993 35.348) scale(1.75) translate(-476.43088 39.024)"></path>
        <path id="path352092" style="font-style:normal;font-weight:700;font-size:72px;line-height:1;font-family:Brandmark1Bold;font-variant-ligatures:normal;text-align:center;text-anchor:middle" d="m 505.169,-19.008 v -8.496 h 11.448 v -10.08 h -11.448 v -12.888 l -10.8,3.6 v 27.864 c 0,3.024 0.576,5.976 1.728,8.712 1.152,2.664 2.736,5.04 4.824,7.056 2.016,2.016 4.392,3.672 7.056,4.752 2.736,1.152 5.616,1.728 8.64,1.728 v -10.8 c -6.336,0 -11.448,-5.112 -11.448,-11.448 z" stroke-width="0" stroke-linejoin="miter" stroke-miterlimit="2" fill="#ffffff" stroke="#ffffff" transform="translate(0 312.61600000000004) translate(259.65416500000003 15.313999999999993) scale(1.75) translate(-494.369 50.472)"></path>
        <path id="path352094" style="font-style:normal;font-weight:700;font-size:72px;line-height:1;font-family:Brandmark1Bold;font-variant-ligatures:normal;text-align:center;text-anchor:middle" d="m 550.62463,-9.936 4.60799,12.456 h 11.952 l -21.384,-56.16 h -9.71999 l -21.312,56.16 h 12.024 l 4.53599,-12.456 z m -9.72001,-26.496 5.904,15.984 h -11.66399 z" stroke-width="0" stroke-linejoin="miter" stroke-miterlimit="2" fill="#dddddd" stroke="#dddddd" transform="translate(0 312.61600000000004) translate(295.35351749999995 9.769999999999996) scale(1.75) translate(-514.76863 53.64)"></path>
        <path id="path352096" style="font-style:normal;font-weight:700;font-size:72px;line-height:1;font-family:Brandmark1Bold;font-variant-ligatures:normal;text-align:center;text-anchor:middle" d="m 607.41687,-25.488 c -1.008,-2.376 -2.51999,-4.608 -4.392,-6.48 -1.872,-1.872 -4.03199,-3.384 -6.47999,-4.392 -2.59201,-1.08 -5.25601,-1.656 -7.99201,-1.656 -2.808,0 -5.472,0.576 -7.992,1.656 -2.44799,1.008 -4.68,2.52 -6.552,4.392 -1.87199,1.872 -3.384,4.032 -4.39199,6.48 -1.08001,2.592 -1.58401,5.256 -1.58401,7.992 v 30.672 l 10.8,3.6 v -16.2 c 0.504,0.36 1.08,0.576 1.728,0.864 2.52,1.08 5.184,1.584 7.992,1.584 2.736,0 5.4,-0.504 7.99201,-1.584 2.376,-1.008 4.60799,-2.52 6.47999,-4.392 1.87201,-1.872 3.384,-4.104 4.392,-6.552 1.08001,-2.52 1.656,-5.184 1.656,-7.992 0,-2.736 -0.57599,-5.4 -1.656,-7.992 z m -18.864,17.712 c -5.4,0 -9.72,-4.32 -9.72,-9.72 0,-5.328 4.32,-9.72 9.72,-9.72 5.32801,0 9.72,4.392 9.72,9.72 0,5.4 -4.39199,9.72 -9.72,9.72 z" stroke-width="0" stroke-linejoin="miter" stroke-miterlimit="2" fill="#dddddd" stroke="#dddddd" transform="translate(0 312.61600000000004) translate(388.56593749999996 37.11200000000001) scale(1.75) translate(-568.03287 38.016)"></path>
        <path id="path352098" style="font-style:normal;font-weight:700;font-size:72px;line-height:1;font-family:Brandmark1Bold;font-variant-ligatures:normal;text-align:center;text-anchor:middle" d="m 651.57312,-25.488 c -1.008,-2.376 -2.51999,-4.608 -4.392,-6.48 -1.872,-1.872 -4.03199,-3.384 -6.47999,-4.392 -2.59201,-1.08 -5.25601,-1.656 -7.99201,-1.656 -2.808,0 -5.472,0.576 -7.992,1.656 -2.44799,1.008 -4.68,2.52 -6.552,4.392 -1.87199,1.872 -3.384,4.032 -4.39199,6.48 -1.08001,2.592 -1.58401,5.256 -1.58401,7.992 v 30.672 l 10.8,3.6 v -16.2 c 0.504,0.36 1.08,0.576 1.728,0.864 2.52,1.08 5.184,1.584 7.992,1.584 2.736,0 5.4,-0.504 7.99201,-1.584 2.376,-1.008 4.60799,-2.52 6.47999,-4.392 1.87201,-1.872 3.384,-4.104 4.392,-6.552 1.08001,-2.52 1.656,-5.184 1.656,-7.992 0,-2.736 -0.57599,-5.4 -1.656,-7.992 z m -18.864,17.712 c -5.4,0 -9.72,-4.32 -9.72,-9.72 0,-5.328 4.32,-9.72 9.72,-9.72 5.32801,0 9.72,4.392 9.72,9.72 0,5.4 -4.39199,9.72 -9.72,9.72 z" stroke-width="0" stroke-linejoin="miter" stroke-miterlimit="2" fill="#dddddd" stroke="#dddddd" transform="translate(0 312.61600000000004) translate(465.839375 37.11200000000001) scale(1.75) translate(-612.18912 38.016)"></path>
      </g>
    </g>
  </g>
</svg>